<svg width="256" height="256" viewBox="0 0 256 256" fill="none" xmlns="http://www.w3.org/2000/svg">
<path d="M116.5 16.4C101.9 19.9 88.4 30.3 82.1 42.9C78.7 49.5 75 62.3 75 67.2V70H60.9H46.8L43.4 73.4L40 76.8V155.8V234.8L43.5 237.9L47.1 241H128H208.9L212.5 237.9L216 234.8V155.8V76.8L212.6 73.4L209.2 70H195.1H181V67.2C181 62.3 177.3 49.5 173.9 42.9C163.8 22.7 138.5 11.1 116.5 16.4ZM144.7 29.9C148.4 31.7 153.3 34.7 155.7 36.6C162.7 42.3 168.1 53.3 169.5 64.2L170.2 70H128.1H86V67.2C86 62.5 88.9 53 92.2 46.8C95.8 39.9 101.1 35 109.3 30.9C117.2 26.9 121.2 26 130.2 26.4C136.3 26.7 139.4 27.5 144.7 29.9ZM205 155.5V230H128H51V155.5V81H128H205V155.5Z" fill="#EEEEEE"/>
</svg>
