<svg width="48" height="48" viewBox="0 0 48 48" fill="none" xmlns="http://www.w3.org/2000/svg">
<path d="M19.7 39.1C9.00001 39.1 0.200012 30.4 0.200012 19.6C0.200012 8.90001 8.90001 0.100006 19.7 0.100006C30.5 0.100006 39.2 8.80001 39.2 19.6C39.1 30.4 30.4 39.1 19.7 39.1ZM19.7 3C10.5 3 3.00001 10.5 3.00001 19.7C3.00001 28.9 10.5 36.4 19.7 36.4C28.9 36.4 36.4 28.9 36.4 19.7C36.3 10.5 28.8 3 19.7 3Z" fill="white"/>
<path d="M45.7 47.8L32.1 34.3L34.3 32.1L47.8 45.7L45.7 47.8Z" fill="white"/>
</svg>
